<svg width="86" height="81" viewBox="0 0 86 81" fill="none" xmlns="http://www.w3.org/2000/svg">
<path d="M78.7309 39.5939H6.55264C3.62458 39.5939 1.25085 37.1912 1.25085 34.2274V26.7461C1.25085 23.7823 3.62458 21.3796 6.55264 21.3796H78.7166C81.6447 21.3796 84.0184 23.7823 84.0184 26.7461V34.2274C84.0184 37.1912 81.6447 39.5939 78.7309 39.5939Z" fill="#146CB6"/>
<path d="M77.3521 40.8743H7.93136C3.55348 40.8743 0 37.2631 0 32.8318V28.1272C0 23.7103 3.55348 20.0991 7.93136 20.0991H77.3379C81.7157 20.0991 85.2692 23.6959 85.2692 28.1272V32.8318C85.2834 37.2631 81.73 40.8743 77.3521 40.8743ZM7.93136 22.6601C4.94644 22.6601 2.51586 25.1203 2.51586 28.1416V32.8462C2.51586 35.8675 4.94644 38.3278 7.93136 38.3278H77.3379C80.3228 38.3278 82.7534 35.8675 82.7534 32.8462V28.1416C82.7534 25.1203 80.3228 22.6601 77.3379 22.6601H7.93136Z" fill="#231F20"/>
<path d="M64.588 17.0057H9.53754C5.9272 17.0057 2.98492 14.0276 2.98492 10.3732V6.63252C2.98492 2.97816 5.9272 0 9.53754 0H64.588C68.1983 0 71.1406 2.97816 71.1406 6.63252V10.3588C71.1406 14.0276 68.2125 17.0057 64.588 17.0057ZM9.53754 2.54654C7.30595 2.54654 5.50079 4.37372 5.50079 6.63252V10.3588C5.50079 12.6176 7.30595 14.4448 9.53754 14.4448H64.588C66.8196 14.4448 68.6247 12.6176 68.6247 10.3588V6.63252C68.6247 4.37372 66.8196 2.54654 64.588 2.54654H9.53754Z" fill="#231F20"/>
<path d="M64.588 60.6566H9.53754C5.9272 60.6566 2.98492 57.6785 2.98492 54.0241V50.2978C2.98492 46.6434 5.9272 43.6653 9.53754 43.6653H64.588C68.1983 43.6653 71.1406 46.6434 71.1406 50.2978V54.0241C71.1406 57.6785 68.2125 60.6566 64.588 60.6566ZM9.53754 46.2118C7.30595 46.2118 5.50079 48.039 5.50079 50.2978V54.0241C5.50079 56.2829 7.30595 58.1101 9.53754 58.1101H64.588C66.8196 58.1101 68.6247 56.2829 68.6247 54.0241V50.2978C68.6247 48.039 66.8196 46.2118 64.588 46.2118H9.53754Z" fill="#231F20"/>
<path d="M64.588 80.1226H9.53754C5.9272 80.1226 2.98492 77.1444 2.98492 73.49V69.7637C2.98492 66.1094 5.9272 63.1312 9.53754 63.1312H64.588C68.1983 63.1312 71.1406 66.1094 71.1406 69.7637V73.49C71.1406 77.1444 68.2125 80.1226 64.588 80.1226ZM9.53754 65.6778C7.30595 65.6778 5.50079 67.5049 5.50079 69.7637V73.49C5.50079 75.7488 7.30595 77.576 9.53754 77.576H64.588C66.8196 77.576 68.6247 75.7488 68.6247 73.49V69.7637C68.6247 67.5049 66.8196 65.6778 64.588 65.6778H9.53754Z" fill="#231F20"/>
</svg>
