<svg width="86" height="83" viewBox="0 0 86 83" fill="none" xmlns="http://www.w3.org/2000/svg">
<path d="M85.2976 36.745C85.2976 37.6514 85.2976 38.5722 85.2976 39.4786C85.2834 39.5793 85.255 39.68 85.2407 39.7807C84.9565 41.982 84.1463 43.9674 82.7533 45.6939C82.4975 46.0104 82.469 46.2694 82.5827 46.6434C83.7483 50.4129 83.3929 53.9953 81.1329 57.3044C80.9766 57.5346 80.9482 57.7504 81.0192 58.0094C81.2609 58.9014 81.3888 59.8222 81.3603 60.7429C81.2466 63.7786 80.3796 66.541 78.2475 68.7854C78.0912 68.9437 78.0485 69.1163 78.0627 69.3321C78.148 70.4975 78.1054 71.6485 77.949 72.7994C77.2525 77.7199 74.225 81.1728 69.4917 82.4245C68.312 82.741 67.1038 82.8705 65.8956 83C62.7686 83 59.6273 83 56.5002 83C55.7042 82.9281 54.9083 82.8705 54.1265 82.7698C50.5446 82.3382 47.0338 81.59 43.594 80.511C40.2253 79.4607 36.8992 78.281 33.559 77.1732C32.0381 76.6696 30.5172 76.1661 28.911 76.0797C27.3191 75.9934 25.5565 74.5259 25.5565 72.4829C25.585 61.0163 25.585 49.5497 25.5565 38.083C25.5565 36.3134 26.9353 34.774 28.4846 34.5438C29.3374 34.4287 30.0197 34.0258 30.6451 33.4935C32.2655 32.1267 33.6158 30.4866 34.9804 28.8752C37.013 26.5013 38.8466 23.9548 40.8223 21.5377C41.732 20.4299 42.6559 19.3365 43.6366 18.3006C45.1007 16.7467 45.7545 14.7901 46.2804 12.7759C46.6784 11.2364 46.9627 9.68261 47.247 8.12879C47.6165 6.0858 48.2704 4.15791 49.3791 2.40267C50.1182 1.22292 51.0279 0.230196 52.4919 0C52.9325 0 53.359 0 53.7996 0C53.9133 0.0143872 54.027 0.0431617 54.1407 0.0575489C55.8037 0.129485 57.4099 0.517941 58.945 1.15098C60.608 1.84157 61.9015 2.94938 62.8681 4.50321C63.8915 6.14335 64.4174 7.92737 64.659 9.82648C64.9859 12.445 65.0001 15.0491 64.46 17.6531C63.8915 20.3579 62.7117 22.8038 61.3756 25.1921C61.0345 25.7963 60.7502 26.415 60.537 27.0768C60.3664 27.6235 60.3664 27.6379 60.935 27.6379C65.5687 27.6379 70.2166 27.6523 74.8504 27.6379C78.2901 27.6235 81.005 29.0622 83.1371 31.7095C84.3453 33.1914 84.9991 34.8891 85.2976 36.745Z" fill="#202020"/>
<path d="M0.0142215 37.3637C0.611206 35.4358 1.81939 34.5294 3.80933 34.5294C8.71313 34.5294 13.6169 34.5294 18.5065 34.5294C20.1695 34.5294 21.4488 35.3783 22.0031 36.8026C22.1595 37.2054 22.2306 37.6227 22.2306 38.0543C22.2306 49.5641 22.2306 61.0739 22.2306 72.5693C22.2306 74.5116 20.6812 76.051 18.7624 76.051C13.7875 76.051 8.81263 76.051 3.83776 76.051C1.77675 76.051 0.682275 75.2597 7.62939e-06 73.2887C0.0142215 61.3329 0.0142215 49.3483 0.0142215 37.3637ZM10.2624 62.2968C8.372 62.2824 6.92218 63.7355 6.90797 65.649C6.89375 67.6201 8.28672 69.0588 10.2198 69.0588C12.1387 69.0732 13.5885 67.6201 13.5885 65.6778C13.5885 63.7931 12.1387 62.3112 10.2624 62.2968Z" fill="#146CB6"/>
</svg>
