<svg width="86" height="83" viewBox="0 0 86 83" fill="none" xmlns="http://www.w3.org/2000/svg">
<path d="M0.0142139 32.6882C0.710695 30.6884 1.89045 29.1777 4.05096 28.7173C4.86116 28.5447 5.69978 28.5015 6.52418 28.5159C9.79338 28.5734 13.0626 28.5878 16.3318 28.5159C17.2983 28.4871 18.2649 28.559 19.2456 28.5734C19.6436 28.5734 19.7715 28.7461 19.5583 29.0914C18.1227 31.4509 18.1938 34.055 18.208 36.6878C18.2364 42.2701 18.2791 47.8667 18.1938 53.449C18.1227 58.0673 21.1361 62.4122 25.8693 63.592C26.58 63.7646 26.7364 64.0955 26.7221 64.743C26.6937 66.3975 26.7079 68.052 26.7079 69.7209C26.6937 73.0156 24.9738 75.1449 21.7188 75.4327C18.8192 75.6917 15.8911 75.7348 12.9915 75.4039C9.99238 75.073 8.173 72.7854 8.15878 69.7353C8.13035 65.4623 8.14457 61.2037 8.14457 56.9307C8.14457 55.8516 8.14457 55.8373 7.09274 55.8373C6.25412 55.8229 5.4155 55.8948 4.60531 55.7653C2.17473 55.4056 0.724909 53.895 0 51.5786C0.0142139 45.277 0.0142139 38.9754 0.0142139 32.6882Z" fill="#202020"/>
<path d="M85.2977 51.5642C84.1463 54.6575 82.4549 55.8372 79.1857 55.8228C76.883 55.8228 77.1531 55.4776 77.1531 57.8514C77.1531 61.6928 77.1531 65.5486 77.1389 69.39C77.1389 71.0014 76.7978 72.5121 75.6464 73.735C74.4809 74.9723 73.0311 75.4902 71.3823 75.5046C68.9659 75.519 66.5495 75.5334 64.1332 75.5046C60.8355 75.4614 58.5755 73.0875 58.5897 69.7641C58.604 68.0808 58.6182 66.3975 58.5897 64.7142C58.5755 64.0955 58.7887 63.8222 59.3857 63.6783C64.3606 62.5273 67.445 58.614 67.445 53.4346C67.4592 46.8884 67.445 40.3422 67.4308 33.796C67.4308 32.2278 66.9902 30.7603 66.2653 29.3647C66.1515 29.1489 65.8957 28.9331 66.052 28.6885C66.2226 28.4008 66.5495 28.5446 66.8196 28.5446C68.7811 28.5446 70.7568 28.5302 72.7184 28.5446C75.2058 28.5446 77.7074 28.5015 80.1949 28.5878C82.6823 28.6741 84.3027 30.0697 85.1697 32.4004C85.2124 32.5011 85.2692 32.6018 85.3119 32.7025C85.2977 38.9754 85.2977 45.277 85.2977 51.5642Z" fill="#202020"/>
<path d="M42.7555 26.0701C47.4745 26.0701 52.1935 26.0701 56.9125 26.0701C60.8782 26.0701 63.6641 28.89 63.6783 32.9184C63.6925 39.1337 63.6925 45.3346 63.6925 51.5499C63.6925 55.9667 60.9777 58.6859 56.614 58.7003C56.0028 58.7003 55.3916 58.7435 54.7804 58.6859C53.956 58.5996 53.6717 58.8874 53.686 59.765C53.7286 64.8437 53.686 69.9368 53.7286 75.0155C53.7428 76.5981 53.5012 78.0943 52.5915 79.4179C51.2696 81.3602 49.3507 82.2235 47.1049 82.2378C43.8357 82.2666 40.5523 82.4105 37.2831 82.1515C34.2271 81.9069 31.6402 79.1158 31.626 75.9938C31.5975 70.6273 31.6118 65.2609 31.6118 59.8945C31.6118 58.6859 31.6118 58.7003 30.4178 58.7003C29.636 58.7003 28.8685 58.7003 28.0867 58.7003C24.5759 58.6572 21.6762 55.8373 21.6478 52.298C21.5909 45.723 21.5909 39.1481 21.6478 32.5731C21.6762 28.9043 24.4764 26.142 28.0867 26.0988C32.9763 26.0413 37.8659 26.0701 42.7555 26.0701Z" fill="#146CB6"/>
<path d="M53.7002 11.2657C53.6575 17.5673 48.6827 22.5597 42.4428 22.4446C36.1034 22.3295 31.3559 16.9343 31.5691 10.6902C31.7681 4.9497 36.8283 -0.0570577 42.6702 0.000491271C48.8248 0.0724275 53.757 5.09358 53.7002 11.2657Z" fill="#146CB6"/>
<path d="M67.7719 25.4946C62.6549 25.4803 58.6466 21.3511 58.5755 16.1717C58.5187 11.6253 62.0011 6.73368 67.8856 6.76246C73.2443 6.79123 77.082 11.0067 77.1105 16.2005C77.1247 21.3943 72.9316 25.4946 67.7719 25.4946Z" fill="#202020"/>
<path d="M26.7222 16.071C26.7222 21.3223 22.6712 25.4803 17.54 25.4803C12.423 25.4946 8.21565 21.3943 8.21565 16.258C8.21565 10.9348 12.1955 6.7193 17.5115 6.74807C23.0976 6.77685 26.779 11.3664 26.7222 16.071Z" fill="#202020"/>
</svg>
