<svg width="83" height="80" viewBox="0 0 83 80" fill="none" xmlns="http://www.w3.org/2000/svg">
<path d="M55.9317 55.7649H4.63373C2.07523 55.7649 0 53.6644 0 51.0747V4.69024C0 2.10054 2.07523 0 4.63373 0H55.9317C58.4902 0 60.5655 2.10054 60.5655 4.69024V51.0747C60.5797 53.6644 58.4902 55.7649 55.9317 55.7649ZM4.63373 2.40267C3.38291 2.40267 2.37372 3.42416 2.37372 4.69024V51.0747C2.37372 52.3408 3.38291 53.3623 4.63373 53.3623H55.9317C57.1825 53.3623 58.1917 52.3408 58.1917 51.0747V4.69024C58.1917 3.42416 57.1825 2.40267 55.9317 2.40267H4.63373Z" fill="#231F20"/>
<path d="M59.3857 11.1356H1.19397V1.6112C1.19397 1.381 1.37875 1.19397 1.60617 1.19397H58.9735C59.2009 1.19397 59.3857 1.381 59.3857 1.6112V11.1356Z" fill="#146CB6"/>
<path d="M60.5797 12.3443H0V4.69024C0 2.10054 2.07523 0 4.63373 0H55.9317C58.4902 0 60.5655 2.10054 60.5655 4.69024V12.3443H60.5797ZM2.37372 9.94158H58.1917V4.69024C58.1917 3.42416 57.1826 2.40267 55.9317 2.40267H4.63373C3.38291 2.40267 2.37372 3.42416 2.37372 4.69024V9.94158Z" fill="#231F20"/>
<path d="M15.55 16.5308H9.93552V22.2137H15.55V16.5308Z" fill="#231F20"/>
<path d="M24.32 16.5308H18.7055V22.2137H24.32V16.5308Z" fill="#231F20"/>
<path d="M33.1042 16.5308H27.4897V22.2137H33.1042V16.5308Z" fill="#231F20"/>
<path d="M41.8742 16.5308H36.2597V22.2137H41.8742V16.5308Z" fill="#231F20"/>
<path d="M50.6442 16.5308H45.0297V22.2137H50.6442V16.5308Z" fill="#231F20"/>
<path d="M15.55 25.7242H9.93552V31.4072H15.55V25.7242Z" fill="#231F20"/>
<path d="M24.32 25.7242H18.7055V31.4072H24.32V25.7242Z" fill="#231F20"/>
<path d="M33.1042 25.7242H27.4897V31.4072H33.1042V25.7242Z" fill="#231F20"/>
<path d="M41.8742 25.7242H36.2597V31.4072H41.8742V25.7242Z" fill="#231F20"/>
<path d="M50.6442 25.7242H45.0297V31.4072H50.6442V25.7242Z" fill="#231F20"/>
<path d="M15.55 34.7164H9.93552V40.3994H15.55V34.7164Z" fill="#231F20"/>
<path d="M24.32 34.7164H18.7055V40.3994H24.32V34.7164Z" fill="#231F20"/>
<path d="M33.1042 34.7164H27.4897V40.3994H33.1042V34.7164Z" fill="#231F20"/>
<path d="M41.8742 34.7164H36.2597V40.3994H41.8742V34.7164Z" fill="#231F20"/>
<path d="M50.6442 34.7164H45.0297V40.3994H50.6442V34.7164Z" fill="#231F20"/>
<path d="M15.55 43.9098H9.93552V49.5928H15.55V43.9098Z" fill="#231F20"/>
<path d="M24.32 43.9098H18.7055V49.5928H24.32V43.9098Z" fill="#231F20"/>
<path d="M33.1042 43.9098H27.4897V49.5928H33.1042V43.9098Z" fill="#231F20"/>
<path d="M41.8742 43.9098H36.2597V49.5928H41.8742V43.9098Z" fill="#231F20"/>
<path d="M50.6442 43.9098H45.0297V49.5928H50.6442V43.9098Z" fill="#231F20"/>
<path d="M58.206 79.3887C71.7474 79.3887 82.725 68.2773 82.725 54.5707C82.725 40.8641 71.7474 29.7527 58.206 29.7527C44.6645 29.7527 33.687 40.8641 33.687 54.5707C33.687 68.2773 44.6645 79.3887 58.206 79.3887Z" fill="white"/>
<path d="M58.405 74.4107C69.2303 74.4107 78.0059 65.5281 78.0059 54.5707C78.0059 43.6134 69.2303 34.7307 58.405 34.7307C47.5796 34.7307 38.804 43.6134 38.804 54.5707C38.804 65.5281 47.5796 74.4107 58.405 74.4107Z" fill="#146CB6"/>
<path d="M58.405 75.605C46.9343 75.605 37.61 66.167 37.61 54.5565C37.61 42.946 46.9343 33.5079 58.405 33.5079C69.8756 33.5079 79.1999 42.946 79.1999 54.5565C79.1999 66.167 69.8756 75.605 58.405 75.605ZM58.405 35.925C48.2562 35.925 39.9837 44.284 39.9837 54.5709C39.9837 64.8577 48.242 73.2167 58.405 73.2167C68.5679 73.2167 76.8262 64.8577 76.8262 54.5709C76.8262 44.284 68.5537 35.925 58.405 35.925Z" fill="#231F20"/>
<path d="M72.5905 54.5275L57.6232 55.736V53.319L72.5905 54.5275Z" fill="#231F20"/>
<path d="M58.206 43.9098L59.3999 54.5276H57.0262L58.206 43.9098Z" fill="#231F20"/>
</svg>
